<svg width="180" height="54" viewBox="0 0 180 54" fill="none" xmlns="http://www.w3.org/2000/svg">
<path fill-rule="evenodd" clip-rule="evenodd" d="M11.976 25.584H6.744C6.392 25.584 6.216 25.408 6.216 25.056V5.808C6.216 5.456 6.392 5.28 6.744 5.28H11.976C13 5.28 13.72 5.504 14.136 5.952C14.584 6.368 14.808 7.088 14.808 8.112V22.752C14.808 23.776 14.584 24.512 14.136 24.96C13.72 25.376 13 25.584 11.976 25.584ZM0.119999 1.008V29.856C0.119999 30.528 0.455999 30.864 1.128 30.864H12.984C15.48 30.864 17.416 30.192 18.792 28.848C20.2 27.472 20.904 25.536 20.904 23.04V7.824C20.904 5.328 20.2 3.408 18.792 2.064C17.416 0.688 15.48 0 12.984 0H1.128C0.455999 0 0.119999 0.335999 0.119999 1.008ZM33.6112 30.864H44.2192C44.6032 30.864 44.8593 30.8 44.9873 30.672C45.1473 30.512 45.2272 30.256 45.2272 29.904V26.736C45.2272 26.032 44.8913 25.68 44.2192 25.68H34.5233C33.4993 25.68 32.7633 25.472 32.3153 25.056C31.8993 24.608 31.6912 23.888 31.6912 22.896V21.84C31.6912 21.488 31.8832 21.312 32.2673 21.312H44.3153C44.9873 21.312 45.3232 20.976 45.3232 20.304V14.208C45.3232 11.68 44.6353 9.744 43.2593 8.4C41.8833 7.056 39.9312 6.384 37.4032 6.384H33.6112C31.0832 6.384 29.1312 7.056 27.7552 8.4C26.3792 9.744 25.6912 11.68 25.6912 14.208V23.04C25.6912 25.568 26.3792 27.504 27.7552 28.848C29.1312 30.192 31.0832 30.864 33.6112 30.864ZM38.7952 17.232H32.2673C31.9152 17.232 31.7392 17.056 31.7392 16.704V14.4C31.7392 13.376 31.9473 12.656 32.3633 12.24C32.7793 11.824 33.4993 11.616 34.5233 11.616H36.5392C37.5632 11.616 38.2832 11.824 38.6992 12.24C39.1152 12.656 39.3232 13.376 39.3232 14.4V16.704C39.3232 17.056 39.1473 17.232 38.7952 17.232ZM48.834 6.384H53.058C53.698 6.384 54.082 6.72 54.21 7.392L58.338 25.44H58.674L62.706 7.392C62.834 6.72 63.234 6.384 63.906 6.384H68.13C68.802 6.384 69.042 6.72 68.85 7.392L62.802 29.808C62.674 30.512 62.242 30.864 61.506 30.864H55.41C54.738 30.864 54.306 30.512 54.114 29.808L48.114 7.392C47.922 6.72 48.162 6.384 48.834 6.384ZM73.8311 30.864H89.6231C90.2631 30.864 90.5831 30.528 90.5831 29.856V26.592C90.5831 25.888 90.2631 25.536 89.6231 25.536H79.4951C79.1111 25.536 78.9191 25.36 78.9191 25.008V1.008C78.9191 0.335999 78.5831 0 77.9111 0H73.8311C73.1591 0 72.8231 0.335999 72.8231 1.008V29.856C72.8231 30.528 73.1591 30.864 73.8311 30.864ZM111.954 30.864H101.346C98.8176 30.864 96.8656 30.192 95.4896 28.848C94.1136 27.504 93.4256 25.568 93.4256 23.04V14.208C93.4256 11.68 94.1136 9.744 95.4896 8.4C96.8656 7.056 98.8176 6.384 101.346 6.384H105.138C107.666 6.384 109.618 7.056 110.994 8.4C112.37 9.744 113.058 11.68 113.058 14.208V20.304C113.058 20.976 112.722 21.312 112.05 21.312H100.002C99.6176 21.312 99.4256 21.488 99.4256 21.84V22.896C99.4256 23.888 99.6336 24.608 100.05 25.056C100.498 25.472 101.234 25.68 102.258 25.68H111.954C112.626 25.68 112.962 26.032 112.962 26.736V29.904C112.962 30.256 112.882 30.512 112.722 30.672C112.594 30.8 112.338 30.864 111.954 30.864ZM100.002 17.232H106.53C106.882 17.232 107.058 17.056 107.058 16.704V14.4C107.058 13.376 106.85 12.656 106.434 12.24C106.018 11.824 105.298 11.616 104.274 11.616H102.258C101.234 11.616 100.514 11.824 100.098 12.24C99.6816 12.656 99.4736 13.376 99.4736 14.4V16.704C99.4736 17.056 99.6496 17.232 100.002 17.232ZM125.064 30.864H126.216C127.208 30.864 128.152 30.656 129.048 30.24C129.944 29.792 130.568 29.136 130.92 28.272H131.112V29.856C131.112 30.528 131.448 30.864 132.12 30.864H136.152C136.856 30.864 137.208 30.528 137.208 29.856V7.392C137.208 6.72 136.856 6.384 136.152 6.384H125.064C122.536 6.384 120.584 7.056 119.208 8.4C117.832 9.744 117.144 11.68 117.144 14.208V23.04C117.144 25.568 117.832 27.504 119.208 28.848C120.584 30.192 122.536 30.864 125.064 30.864ZM131.112 12.192V21.936C131.112 24.368 130.008 25.584 127.8 25.584H126.024C125 25.584 124.28 25.376 123.864 24.96C123.448 24.512 123.24 23.776 123.24 22.752V14.496C123.24 13.472 123.448 12.752 123.864 12.336C124.28 11.888 125 11.664 126.024 11.664H130.536C130.92 11.664 131.112 11.84 131.112 12.192ZM147.556 30.864H143.476C142.804 30.864 142.468 30.528 142.468 29.856V7.392C142.468 6.72 142.804 6.384 143.476 6.384H147.556C148.228 6.384 148.564 6.72 148.564 7.392V9.024H148.756C149.108 8.16 149.732 7.504 150.628 7.056C151.524 6.608 152.468 6.384 153.46 6.384H155.188C155.828 6.384 156.148 6.72 156.148 7.392V10.704C156.148 11.088 156.068 11.36 155.908 11.52C155.78 11.648 155.54 11.696 155.188 11.664H151.876C149.668 11.664 148.564 12.912 148.564 15.408V29.856C148.564 30.528 148.228 30.864 147.556 30.864ZM160.21 30.864H164.29C164.962 30.864 165.298 30.528 165.298 29.856V15.312C165.298 12.88 166.402 11.664 168.61 11.664H170.339C171.363 11.664 172.082 11.888 172.498 12.336C172.946 12.752 173.171 13.472 173.171 14.496V29.856C173.171 29.8587 173.171 29.8613 173.171 29.864H173.168C173.168 32.864 169.516 33.392 167.5 33.392H0.960007C0.320007 33.392 0 33.744 0 34.448V37.664C0 38.368 0.320007 38.72 0.960007 38.72H169.564C172.092 38.72 174.528 37.74 176 36.364C177.449 35.009 179.208 32.8124 179.261 29.9958C179.265 29.9509 179.266 29.9043 179.266 29.856V14.208C179.266 8.992 176.755 6.384 171.73 6.384H170.194C167.762 6.384 166.195 7.248 165.49 8.976H165.298V7.392C165.298 6.72 164.962 6.384 164.29 6.384H160.21C159.538 6.384 159.202 6.72 159.202 7.392V29.856C159.202 30.528 159.538 30.864 160.21 30.864Z" fill="white"/>
<path d="M9.94638 52.64H11.3384C12.117 52.64 12.5064 52.2453 12.5064 51.456V46.256C12.5064 45.4667 12.117 45.072 11.3384 45.072H9.94638C9.17838 45.072 8.79438 45.4667 8.79438 46.256V51.456C8.79438 52.2453 9.17838 52.64 9.94638 52.64ZM11.5784 54H9.72238C8.93304 54 8.31971 53.7813 7.88238 53.344C7.45571 52.9067 7.24238 52.2987 7.24238 51.52V46.192C7.24238 45.4027 7.45571 44.7947 7.88238 44.368C8.31971 43.9307 8.93304 43.712 9.72238 43.712H11.5784C12.3677 43.712 12.981 43.9307 13.4184 44.368C13.8557 44.7947 14.0744 45.4027 14.0744 46.192V51.52C14.0744 52.2987 13.8557 52.9067 13.4184 53.344C12.981 53.7813 12.3677 54 11.5784 54ZM17.3505 54H16.3425C16.1612 54 16.0705 53.9093 16.0705 53.728V46.112C16.0705 45.9307 16.1612 45.84 16.3425 45.84H17.3505C17.5318 45.84 17.6225 45.9307 17.6225 46.112V46.688H17.6865C17.9425 46.1227 18.4812 45.84 19.3025 45.84H20.0065C20.7852 45.84 21.3825 46.0533 21.7985 46.48C22.2145 46.9067 22.4225 47.52 22.4225 48.32V53.728C22.4225 53.9093 22.3265 54 22.1345 54H21.1265C20.9452 54 20.8545 53.9093 20.8545 53.728V48.384C20.8545 47.5947 20.4652 47.2 19.6865 47.2H18.9345C18.0598 47.2 17.6225 47.6533 17.6225 48.56V53.728C17.6225 53.9093 17.5318 54 17.3505 54ZM25.6961 54H24.6881C24.5068 54 24.4161 53.9093 24.4161 53.728V43.024C24.4161 42.8427 24.5068 42.752 24.6881 42.752H25.6961C25.8775 42.752 25.9681 42.8427 25.9681 43.024V53.728C25.9681 53.9093 25.8775 54 25.6961 54ZM28.1505 44.48V43.024C28.1505 42.8533 28.2358 42.768 28.4065 42.768H29.4465C29.6172 42.768 29.7025 42.8533 29.7025 43.024V44.48C29.7025 44.6613 29.6172 44.752 29.4465 44.752H28.4065C28.2358 44.752 28.1505 44.6613 28.1505 44.48ZM28.1505 53.728V46.112C28.1505 45.9307 28.2358 45.84 28.4065 45.84H29.4305C29.6118 45.84 29.7025 45.9307 29.7025 46.112V53.728C29.7025 53.8347 29.6812 53.9093 29.6385 53.952C29.6065 53.984 29.5425 54 29.4465 54H28.4225C28.2412 54 28.1505 53.9093 28.1505 53.728ZM33.0849 54H32.0769C31.8955 54 31.8049 53.9093 31.8049 53.728V46.112C31.8049 45.9307 31.8955 45.84 32.0769 45.84H33.0849C33.2662 45.84 33.3569 45.9307 33.3569 46.112V46.688H33.4209C33.6769 46.1227 34.2155 45.84 35.0369 45.84H35.7409C36.5195 45.84 37.1169 46.0533 37.5329 46.48C37.9489 46.9067 38.1569 47.52 38.1569 48.32V53.728C38.1569 53.9093 38.0609 54 37.8689 54H36.8609C36.6795 54 36.5889 53.9093 36.5889 53.728V48.384C36.5889 47.5947 36.1995 47.2 35.4209 47.2H34.6689C33.7942 47.2 33.3569 47.6533 33.3569 48.56V53.728C33.3569 53.9093 33.2662 54 33.0849 54ZM45.8465 54H42.3905C41.6012 54 40.9878 53.7813 40.5505 53.344C40.1238 52.9067 39.9105 52.2987 39.9105 51.52V48.32C39.9105 47.5307 40.1238 46.9227 40.5505 46.496C40.9878 46.0587 41.6012 45.84 42.3905 45.84H43.7025C44.4918 45.84 45.1052 46.0587 45.5425 46.496C45.9798 46.9227 46.1985 47.5307 46.1985 48.32V50.352C46.1985 50.544 46.1025 50.64 45.9105 50.64H41.6225C41.5052 50.64 41.4465 50.6933 41.4465 50.8V51.488C41.4465 52.2667 41.8358 52.656 42.6145 52.656H45.8465C46.0385 52.656 46.1345 52.752 46.1345 52.944V53.744C46.1345 53.9147 46.0385 54 45.8465 54ZM41.6225 49.552H44.4865C44.5932 49.552 44.6465 49.4987 44.6465 49.392V48.368C44.6465 47.9627 44.5558 47.6693 44.3745 47.488C44.1932 47.296 43.8998 47.2 43.4945 47.2H42.6145C42.2092 47.2 41.9158 47.296 41.7345 47.488C41.5532 47.6693 41.4625 47.9627 41.4625 48.368V49.392C41.4625 49.4987 41.5158 49.552 41.6225 49.552ZM57.3256 54H52.2056C52.0243 54 51.9336 53.9093 51.9336 53.728V43.984C51.9336 43.8027 52.0243 43.712 52.2056 43.712H57.3256C57.4963 43.712 57.5816 43.8027 57.5816 43.984V44.8C57.5816 44.9813 57.4963 45.072 57.3256 45.072H53.6776C53.5496 45.072 53.4856 45.1253 53.4856 45.232V47.936C53.4856 48.0427 53.5496 48.096 53.6776 48.096H56.7656C56.9576 48.096 57.0536 48.1867 57.0536 48.368V49.184C57.0536 49.3653 56.9576 49.456 56.7656 49.456H53.6776C53.5496 49.456 53.4856 49.5093 53.4856 49.616V52.464C53.4856 52.5813 53.5496 52.64 53.6776 52.64H57.3256C57.4963 52.64 57.5816 52.7307 57.5816 52.912V53.728C57.5816 53.9093 57.4963 54 57.3256 54ZM62.5011 54H61.6851C60.9171 54 60.3251 53.7867 59.9091 53.36C59.5038 52.9227 59.3011 52.3093 59.3011 51.52V48.32C59.3011 47.52 59.5038 46.9067 59.9091 46.48C60.3251 46.0533 60.9171 45.84 61.6851 45.84H62.5011C63.3225 45.84 63.8558 46.1227 64.1011 46.688H64.1651V43.024C64.1651 42.8427 64.2558 42.752 64.4371 42.752H65.4611C65.6425 42.752 65.7331 42.8427 65.7331 43.024V53.728C65.7331 53.9093 65.6425 54 65.4611 54H64.4371C64.2558 54 64.1651 53.9093 64.1651 53.728V53.152H64.1011C63.8558 53.7173 63.3225 54 62.5011 54ZM64.1651 51.28V48.56C64.1651 47.6533 63.7278 47.2 62.8531 47.2H62.0051C61.2371 47.2 60.8531 47.5947 60.8531 48.384V51.456C60.8531 52.2453 61.2371 52.64 62.0051 52.64H62.8531C63.7278 52.64 64.1651 52.1867 64.1651 51.28ZM70.7664 54H70.0464C69.2784 54 68.6864 53.7867 68.2704 53.36C67.865 52.9227 67.6624 52.3093 67.6624 51.52V46.112C67.6624 45.9307 67.753 45.84 67.9344 45.84H68.9424C69.1237 45.84 69.2144 45.9307 69.2144 46.112V51.456C69.2144 52.2453 69.5984 52.64 70.3664 52.64H71.1344C72.009 52.64 72.4464 52.1867 72.4464 51.28V46.112C72.4464 45.9307 72.537 45.84 72.7184 45.84H73.7264C73.9184 45.84 74.0144 45.9307 74.0144 46.112V53.728C74.0144 53.9093 73.9184 54 73.7264 54H72.7184C72.537 54 72.4464 53.9093 72.4464 53.728V53.152H72.3824C72.1264 53.7173 71.5877 54 70.7664 54ZM80.968 52.912V53.744C80.968 53.9147 80.872 54 80.68 54H78.328C77.5387 54 76.9253 53.7813 76.488 53.344C76.0613 52.9067 75.848 52.2987 75.848 51.52V48.32C75.848 47.5307 76.0613 46.9227 76.488 46.496C76.9253 46.0587 77.5387 45.84 78.328 45.84H80.68C80.872 45.84 80.968 45.9307 80.968 46.112V46.944C80.968 47.1147 80.872 47.2 80.68 47.2H78.552C77.784 47.2 77.4 47.5947 77.4 48.384V51.456C77.4 52.2453 77.784 52.64 78.552 52.64H80.68C80.872 52.64 80.968 52.7307 80.968 52.912ZM85.4364 54H84.8124C84.023 54 83.4097 53.7813 82.9724 53.344C82.5457 52.9067 82.3324 52.2987 82.3324 51.52V48.32C82.3324 47.5307 82.5457 46.9227 82.9724 46.496C83.4097 46.0587 84.023 45.84 84.8124 45.84H88.3964C88.5884 45.84 88.6844 45.9307 88.6844 46.112V53.728C88.6844 53.9093 88.5884 54 88.3964 54H87.3884C87.207 54 87.1164 53.9093 87.1164 53.728V53.152H87.0524C86.7964 53.7173 86.2577 54 85.4364 54ZM87.1164 51.28V47.36C87.1164 47.2533 87.0577 47.2 86.9404 47.2H85.0364C84.2684 47.2 83.8844 47.5947 83.8844 48.384V51.456C83.8844 52.2453 84.2684 52.64 85.0364 52.64H85.8044C86.679 52.64 87.1164 52.1867 87.1164 51.28ZM90.9199 47.2H90.1519C90.0452 47.2 89.9705 47.184 89.9279 47.152C89.8959 47.1093 89.8799 47.04 89.8799 46.944V46.112C89.8799 45.9307 89.9705 45.84 90.1519 45.84H90.9199C91.0265 45.84 91.0799 45.7867 91.0799 45.68V44.24C91.0799 44.0587 91.1759 43.968 91.3679 43.968H92.3759C92.5572 43.968 92.6479 44.0587 92.6479 44.24V45.68C92.6479 45.7867 92.7065 45.84 92.8239 45.84H94.3119C94.5039 45.84 94.5999 45.9307 94.5999 46.112V46.944C94.5999 47.1147 94.5039 47.2 94.3119 47.2H92.8239C92.7065 47.2 92.6479 47.2533 92.6479 47.36V51.472C92.6479 52.2507 93.0479 52.64 93.8479 52.64H94.4719C94.6639 52.64 94.7599 52.7307 94.7599 52.912V53.744C94.7599 53.9147 94.6639 54 94.4719 54H93.6079C92.8185 54 92.1999 53.7867 91.7519 53.36C91.3039 52.9333 91.0799 52.3307 91.0799 51.552V47.36C91.0799 47.2533 91.0265 47.2 90.9199 47.2ZM96.3693 44.48V43.024C96.3693 42.8533 96.4546 42.768 96.6253 42.768H97.6653C97.8359 42.768 97.9213 42.8533 97.9213 43.024V44.48C97.9213 44.6613 97.8359 44.752 97.6653 44.752H96.6253C96.4546 44.752 96.3693 44.6613 96.3693 44.48ZM96.3693 53.728V46.112C96.3693 45.9307 96.4546 45.84 96.6253 45.84H97.6493C97.8306 45.84 97.9213 45.9307 97.9213 46.112V53.728C97.9213 53.8347 97.8999 53.9093 97.8573 53.952C97.8253 53.984 97.7613 54 97.6653 54H96.6413C96.4599 54 96.3693 53.9093 96.3693 53.728ZM103.752 54H102.344C101.554 54 100.941 53.7813 100.504 53.344C100.077 52.9067 99.8636 52.2987 99.8636 51.52V48.32C99.8636 47.5307 100.077 46.9227 100.504 46.496C100.941 46.0587 101.554 45.84 102.344 45.84H103.752C104.53 45.84 105.138 46.0587 105.576 46.496C106.024 46.9227 106.248 47.5307 106.248 48.32V51.52C106.248 52.2987 106.024 52.9067 105.576 53.344C105.138 53.7813 104.53 54 103.752 54ZM102.568 52.64H103.544C104.312 52.64 104.696 52.2507 104.696 51.472V48.368C104.696 47.5893 104.312 47.2 103.544 47.2H102.568C102.162 47.2 101.869 47.296 101.688 47.488C101.506 47.6693 101.416 47.9627 101.416 48.368V51.472C101.416 51.8773 101.506 52.176 101.688 52.368C101.869 52.5493 102.162 52.64 102.568 52.64ZM109.366 54H108.358C108.177 54 108.086 53.9093 108.086 53.728V46.112C108.086 45.9307 108.177 45.84 108.358 45.84H109.366C109.547 45.84 109.638 45.9307 109.638 46.112V46.688H109.702C109.958 46.1227 110.497 45.84 111.318 45.84H112.022C112.801 45.84 113.398 46.0533 113.814 46.48C114.23 46.9067 114.438 47.52 114.438 48.32V53.728C114.438 53.9093 114.342 54 114.15 54H113.142C112.961 54 112.87 53.9093 112.87 53.728V48.384C112.87 47.5947 112.481 47.2 111.702 47.2H110.95C110.075 47.2 109.638 47.6533 109.638 48.56V53.728C109.638 53.9093 109.547 54 109.366 54ZM121.588 54H120.596C120.415 54 120.324 53.9093 120.324 53.728V43.984C120.324 43.8027 120.415 43.712 120.596 43.712H121.492C121.663 43.712 121.78 43.7707 121.844 43.888L125.716 50.848H125.78V43.984C125.78 43.8027 125.871 43.712 126.052 43.712H127.044C127.226 43.712 127.316 43.8027 127.316 43.984V53.728C127.316 53.9093 127.226 54 127.044 54H126.18C126.01 54 125.871 53.9147 125.764 53.744L121.924 46.864H121.86V53.728C121.86 53.9093 121.77 54 121.588 54ZM135.268 54H131.812C131.023 54 130.41 53.7813 129.972 53.344C129.546 52.9067 129.332 52.2987 129.332 51.52V48.32C129.332 47.5307 129.546 46.9227 129.972 46.496C130.41 46.0587 131.023 45.84 131.812 45.84H133.124C133.914 45.84 134.527 46.0587 134.964 46.496C135.402 46.9227 135.62 47.5307 135.62 48.32V50.352C135.62 50.544 135.524 50.64 135.332 50.64H131.044C130.927 50.64 130.868 50.6933 130.868 50.8V51.488C130.868 52.2667 131.258 52.656 132.036 52.656H135.268C135.46 52.656 135.556 52.752 135.556 52.944V53.744C135.556 53.9147 135.46 54 135.268 54ZM131.044 49.552H133.908C134.015 49.552 134.068 49.4987 134.068 49.392V48.368C134.068 47.9627 133.978 47.6693 133.796 47.488C133.615 47.296 133.322 47.2 132.916 47.2H132.036C131.631 47.2 131.338 47.296 131.156 47.488C130.975 47.6693 130.884 47.9627 130.884 48.368V49.392C130.884 49.4987 130.938 49.552 131.044 49.552ZM137.623 47.2H136.855C136.748 47.2 136.674 47.184 136.631 47.152C136.599 47.1093 136.583 47.04 136.583 46.944V46.112C136.583 45.9307 136.674 45.84 136.855 45.84H137.623C137.73 45.84 137.783 45.7867 137.783 45.68V44.24C137.783 44.0587 137.879 43.968 138.071 43.968H139.079C139.26 43.968 139.351 44.0587 139.351 44.24V45.68C139.351 45.7867 139.41 45.84 139.527 45.84H141.015C141.207 45.84 141.303 45.9307 141.303 46.112V46.944C141.303 47.1147 141.207 47.2 141.015 47.2H139.527C139.41 47.2 139.351 47.2533 139.351 47.36V51.472C139.351 52.2507 139.751 52.64 140.551 52.64H141.175C141.367 52.64 141.463 52.7307 141.463 52.912V53.744C141.463 53.9147 141.367 54 141.175 54H140.311C139.522 54 138.903 53.7867 138.455 53.36C138.007 52.9333 137.783 52.3307 137.783 51.552V47.36C137.783 47.2533 137.73 47.2 137.623 47.2ZM145.856 54H144.48C144.32 54 144.214 53.9093 144.16 53.728L142.32 46.112C142.278 45.9307 142.342 45.84 142.512 45.84H143.664C143.856 45.84 143.963 45.9307 143.984 46.112L145.152 52.16H145.264L146.672 46.112C146.704 45.9307 146.806 45.84 146.976 45.84H148.032C148.214 45.84 148.326 45.9307 148.368 46.112L149.744 52.16H149.856L151.024 46.112C151.056 45.9307 151.163 45.84 151.344 45.84H152.496C152.678 45.84 152.742 45.9307 152.688 46.112L150.848 53.728C150.816 53.9093 150.71 54 150.528 54H149.152C148.982 54 148.875 53.9093 148.832 53.728L147.552 47.792H147.44L146.176 53.728C146.144 53.9093 146.038 54 145.856 54ZM157.783 54H156.375C155.586 54 154.972 53.7813 154.535 53.344C154.108 52.9067 153.895 52.2987 153.895 51.52V48.32C153.895 47.5307 154.108 46.9227 154.535 46.496C154.972 46.0587 155.586 45.84 156.375 45.84H157.783C158.562 45.84 159.17 46.0587 159.607 46.496C160.055 46.9227 160.279 47.5307 160.279 48.32V51.52C160.279 52.2987 160.055 52.9067 159.607 53.344C159.17 53.7813 158.562 54 157.783 54ZM156.599 52.64H157.575C158.343 52.64 158.727 52.2507 158.727 51.472V48.368C158.727 47.5893 158.343 47.2 157.575 47.2H156.599C156.194 47.2 155.9 47.296 155.719 47.488C155.538 47.6693 155.447 47.9627 155.447 48.368V51.472C155.447 51.8773 155.538 52.176 155.719 52.368C155.9 52.5493 156.194 52.64 156.599 52.64ZM163.397 54H162.389C162.208 54 162.117 53.9093 162.117 53.728V46.112C162.117 45.9307 162.208 45.84 162.389 45.84H163.397C163.579 45.84 163.669 45.9307 163.669 46.112V46.72H163.733C163.84 46.4533 164.043 46.24 164.341 46.08C164.651 45.92 164.992 45.84 165.365 45.84H165.957C166.139 45.84 166.229 45.9307 166.229 46.112V46.944C166.229 47.1467 166.139 47.232 165.957 47.2H164.997C164.112 47.2 163.669 47.6853 163.669 48.656V53.728C163.669 53.9093 163.579 54 163.397 54ZM172.117 45.84H173.269C173.365 45.84 173.429 45.872 173.461 45.936C173.503 45.9893 173.493 46.064 173.429 46.16L171.173 49.744V49.808L173.605 53.68C173.658 53.7653 173.663 53.84 173.621 53.904C173.589 53.968 173.514 54 173.397 54H172.357C172.111 54 171.93 53.9093 171.813 53.728L169.557 50.032C169.482 49.8933 169.482 49.7493 169.557 49.6L171.653 46.096C171.749 45.9253 171.903 45.84 172.117 45.84ZM168.757 54H167.749C167.567 54 167.477 53.9093 167.477 53.728V43.024C167.477 42.8427 167.567 42.752 167.749 42.752H168.757C168.938 42.752 169.029 42.8427 169.029 43.024V53.728C169.029 53.9093 168.938 54 168.757 54Z" fill="white"/>
</svg>
